<?xml version="1.0" encoding="utf-8"?>
<!-- Generator: Adobe Illustrator 23.0.3, SVG Export Plug-In . SVG Version: 6.00 Build 0)  -->
<svg version="1.1" id="Layer_1" xmlns="http://www.w3.org/2000/svg" xmlns:xlink="http://www.w3.org/1999/xlink" x="0px" y="0px"
	 viewBox="0 0 56.8 38.1" style="enable-background:new 0 0 56.8 38.1;" xml:space="preserve">
<style type="text/css">
	.st0{opacity:0.5;fill:#FACBD4;}
</style>
<path class="st0" d="M14.5,15.4c0.9-5,5.9-7.7,10.6-7.7c0-0.7,0-7.7,0-7.7C14.2-0.3,3.2,8,0.5,18.6c-2.1,8.1,1.9,17.5,10.6,19.2
	c1,0.2,2,0.3,3,0.2c6.3-0.3,12.3-4,12.3-11.8C26.5,19,22.2,15.3,14.5,15.4z"/>
<path class="st0" d="M44.8,15.4c0.9-5,5.9-7.7,10.6-7.7c0-0.7,0-7.7,0-7.7C44.5-0.3,33.5,8,30.8,18.6c-2.1,8.1,1.9,17.5,10.6,19.2
	c1,0.2,2,0.3,3,0.2c6.3-0.3,12.3-4,12.3-11.8C56.8,19,52.5,15.3,44.8,15.4z"/>
</svg>
